<svg width="128" height="128" viewBox="0 0 128 128" fill="none" xmlns="http://www.w3.org/2000/svg">
  <rect width="128" height="128" rx="28" fill="#0F766E"/>
  <path d="M24 88V40H45.6C53.8667 40 60.2 41.8667 64.6 45.6C69.1333 49.2 71.4 54.6 71.4 61.8C71.4 69.1333 69.1333 74.6667 64.6 78.4C60.2 82.1333 53.8667 84 45.6 84H34V88H24Z" fill="#F8F4ED"/>
  <path d="M34 74.8H45C50.0667 74.8 53.8667 73.6667 56.4 71.4C59.0667 69 60.4 65.8 60.4 61.8C60.4 58.0667 59.0667 55 56.4 52.6C53.8667 50.2 50.0667 49 45 49H34V74.8Z" fill="#0F766E"/>
  <path d="M79 40H104V50H90V59H102.2V68.6H90V88H79V40Z" fill="#F8F4ED"/>
</svg>
